# xmcd
#
# Track frame offsets: 
#        150
#        39707
#        53039
#        72745
#        92459
#        110890
#        140013
#        168503
#        191501
#        228608
#        253778
#        287386
#        317297
#        338463
#
# Disc length: 4718 seconds
#
# Revision: 0
# Processed by: cddbd v1.5.2PL0 Copyright (c) Steve Scherf et al.
# Submitted via: ExactAudioCopy v1.3
#
DISCID=ca126c0e
DTITLE=Little Elmore Reed Blues Band - Live At TC's Lounge
DYEAR=1900
DGENRE=Blues
TTITLE0=Every Day I Have The Blues
TTITLE1=Walkin' With Gary
TTITLE2=Goin' Away Baby
TTITLE3=Bad Boy
TTITLE4=Tick Tock
TTITLE5=You Upset My Mind
TTITLE6=Sick and Tired
TTITLE7=You Don't Have To Go
TTITLE8=Country Boy
TTITLE9=I Love You
TTITLE10=All About My Girl
TTITLE11=Fine Little Mama
TTITLE12=Kissing At Midnight
TTITLE13=Hey Little Girl
EXTD=
EXTT0=
EXTT1=
EXTT2=
EXTT3=
EXTT4=
EXTT5=
EXTT6=
EXTT7=
EXTT8=
EXTT9=
EXTT10=
EXTT11=
EXTT12=
EXTT13=
PLAYORDER=
